<svg xmlns="http://www.w3.org/2000/svg" width="24" height="22" viewBox="0 0 24 22">
  <defs>
    <style>
      .a {
        fill: #cba052;
        fill-rule: evenodd;
      }
    </style>
  </defs>
  <title>Favorite-Icon-Normal</title>
  <path class="a" d="M12,3.85a6.19,6.19,0,0,1,1.39-2.07,6.32,6.32,0,0,1,8.79,0,6,6,0,0,1,.34,8.28L12.33,22h-.66L1.48,10.06a6,6,0,0,1,.34-8.28,6.32,6.32,0,0,1,8.79,0A6.19,6.19,0,0,1,12,3.85Zm0,17L21.75,9.43a5.08,5.08,0,0,0-.28-6.95,5.3,5.3,0,0,0-7.37,0,5,5,0,0,0-1.53,3.76H11.43A5,5,0,0,0,9.9,2.48a5.3,5.3,0,0,0-7.37,0,5.09,5.09,0,0,0-.28,7L12,20.85Z"/>
</svg>
